<?xml version="1.0" encoding="UTF-8" standalone="no"?><!DOCTYPE svg PUBLIC "-//W3C//DTD SVG 1.1//EN" "http://www.w3.org/Graphics/SVG/1.1/DTD/svg11.dtd"><svg width="100%" height="100%" viewBox="0 0 294 293" version="1.1" xmlns="http://www.w3.org/2000/svg" xmlns:xlink="http://www.w3.org/1999/xlink" xml:space="preserve" style="fill-rule:evenodd;clip-rule:evenodd;stroke-linejoin:round;stroke-miterlimit:1.41421;"><path d="M288.629,146.22c0,-79.696 -64.608,-144.338 -144.317,-144.338c-79.7,0 -144.312,64.642 -144.312,144.338c0,79.721 64.612,144.333 144.313,144.333c79.708,0 144.316,-64.612 144.316,-144.333" style="fill:#e62526;fill-rule:nonzero;"/><path d="M128.052,79.521c0,0 37.971,-59.638 76.796,-76.163c-0.001,0 20.662,-10.812 28.929,6.367c0,0 -11.284,-7.95 -28.625,5.554c0,0 -29.896,20.504 -62.338,71.083l-14.762,-6.841Z" style="fill:#fff;fill-rule:nonzero;"/><path d="M1.288,66.772c0,0 4.267,-12.162 27.7,-12.354c0,0 36.792,-2.142 97.404,25.6l-8.65,14.104c0,0 -58.183,-28.612 -95.937,-29.391c0,0 -10.488,-0.688 -20.517,2.041" style="fill:#fff;fill-rule:nonzero;"/><path d="M132.202,102.161c0,0 -87.329,144.745 -62.8,190.141c0,0 -57.637,-16.929 48.838,-196.275l13.962,6.134Z" style="fill:#fff;fill-rule:nonzero;"/><path d="M133.917,101.92l9.346,-14.221c0,0 180.308,88.804 146.212,141.55c0,0 5.863,-44.65 -155.558,-127.329" style="fill:#fff;fill-rule:nonzero;"/><path d="M127.277,80.586l0.637,-0.075l13.909,6.463l0.254,0.833l-8.704,13.229l-1.08,0l-13.383,-5.754l-0.25,-0.846l8.617,-13.85Z" style="fill:#e82e28;fill-rule:nonzero;"/></svg>